<svg xmlns="http://www.w3.org/2000/svg" width="1200" height="720" viewBox="0 0 1200 720">
<defs>
<marker id="arrow-blue" markerWidth="12" markerHeight="12" refX="10" refY="6" orient="auto">
<path d="M2,2 L10,6 L2,10 Z" fill="#1F4E79" />
</marker>
<marker id="arrow-orange" markerWidth="12" markerHeight="12" refX="10" refY="6" orient="auto">
<path d="M2,2 L10,6 L2,10 Z" fill="#C65911" />
</marker>
<style><![CDATA[
text { font-family: 'Microsoft YaHei', 'Noto Sans CJK SC', Arial, sans-serif; }
.title { font-size: 34px; font-weight: 700; fill: #1F4E79; }
.subtitle { font-size: 20px; fill: #666666; }
.box-title { font-size: 20px; font-weight: 700; fill: #2B2B2B; }
.box-text { font-size: 17px; fill: #2B2B2B; }
.small { font-size: 15px; fill: #2B2B2B; }
.note { font-size: 17px; fill: #C65911; }
]]></style>
</defs>
<rect x="0" y="0" width="1200" height="720" fill="#FFFFFF"/>
<text x="60" y="60" text-anchor="start" class="title">SQL+ 表达逻辑：线性步骤与修复锚点</text>
<rect x="55" y="130" width="95" height="60" rx="16" fill="#1F4E79" stroke="#1F4E79" stroke-width="2"/>
<text x="102" y="160" text-anchor="middle" class="box-title">
<tspan x="102" dy="0">FROM</tspan>
</text>
<line x1="155" y1="160" x2="175" y2="160" stroke="#1F4E79" stroke-width="3" marker-end="url(#arrow-blue)"/>
<rect x="180" y="130" width="95" height="60" rx="16" fill="#C65911" stroke="#C65911" stroke-width="2"/>
<text x="227" y="160" text-anchor="middle" class="box-title">
<tspan x="227" dy="0">JOIN</tspan>
</text>
<line x1="280" y1="160" x2="300" y2="160" stroke="#1F4E79" stroke-width="3" marker-end="url(#arrow-blue)"/>
<rect x="305" y="130" width="95" height="60" rx="16" fill="#1F4E79" stroke="#1F4E79" stroke-width="2"/>
<text x="352" y="160" text-anchor="middle" class="box-title">
<tspan x="352" dy="0">WHERE</tspan>
</text>
<line x1="405" y1="160" x2="425" y2="160" stroke="#1F4E79" stroke-width="3" marker-end="url(#arrow-blue)"/>
<rect x="430" y="130" width="95" height="60" rx="16" fill="#C65911" stroke="#C65911" stroke-width="2"/>
<text x="477" y="160" text-anchor="middle" class="box-title">
<tspan x="477" dy="0">GROUP</tspan>
</text>
<line x1="530" y1="160" x2="550" y2="160" stroke="#1F4E79" stroke-width="3" marker-end="url(#arrow-blue)"/>
<rect x="555" y="130" width="95" height="60" rx="16" fill="#1F4E79" stroke="#1F4E79" stroke-width="2"/>
<text x="602" y="160" text-anchor="middle" class="box-title">
<tspan x="602" dy="0">AGG</tspan>
</text>
<line x1="655" y1="160" x2="675" y2="160" stroke="#1F4E79" stroke-width="3" marker-end="url(#arrow-blue)"/>
<rect x="680" y="130" width="95" height="60" rx="16" fill="#C65911" stroke="#C65911" stroke-width="2"/>
<text x="727" y="160" text-anchor="middle" class="box-title">
<tspan x="727" dy="0">HAVING</tspan>
</text>
<line x1="780" y1="160" x2="800" y2="160" stroke="#1F4E79" stroke-width="3" marker-end="url(#arrow-blue)"/>
<rect x="805" y="130" width="95" height="60" rx="16" fill="#1F4E79" stroke="#1F4E79" stroke-width="2"/>
<text x="852" y="160" text-anchor="middle" class="box-title">
<tspan x="852" dy="0">SELECT</tspan>
</text>
<line x1="905" y1="160" x2="925" y2="160" stroke="#1F4E79" stroke-width="3" marker-end="url(#arrow-blue)"/>
<rect x="930" y="130" width="95" height="60" rx="16" fill="#C65911" stroke="#C65911" stroke-width="2"/>
<text x="977" y="160" text-anchor="middle" class="box-title">
<tspan x="977" dy="0">ORDER</tspan>
</text>
<line x1="1030" y1="160" x2="1050" y2="160" stroke="#1F4E79" stroke-width="3" marker-end="url(#arrow-blue)"/>
<rect x="1055" y="130" width="95" height="60" rx="16" fill="#1F4E79" stroke="#1F4E79" stroke-width="2"/>
<text x="1102" y="160" text-anchor="middle" class="box-title">
<tspan x="1102" dy="0">LIMIT</tspan>
</text>
<text x="100" y="270" text-anchor="start" class="box-title">SQL+ 步骤</text>
<text x="320" y="270" text-anchor="start" class="box-title">主要诊断对象</text>
<text x="760" y="270" text-anchor="start" class="box-title">对应 repair skill</text>
<rect x="80" y="287" width="150" height="42" rx="16" fill="#EEF2F7" stroke="#1F4E79" stroke-width="2"/>
<text x="155" y="308" text-anchor="middle" class="small">
<tspan x="155" dy="0">WHERE</tspan>
</text>
<rect x="270" y="287" width="390" height="42" rx="16" fill="#FFFFFF" stroke="#1F4E79" stroke-width="2"/>
<text x="465" y="308" text-anchor="middle" class="small">
<tspan x="465" dy="0">值链接、日期边界、隐含过滤</tspan>
</text>
<rect x="720" y="287" width="330" height="42" rx="16" fill="#E2EFDA" stroke="#548235" stroke-width="2"/>
<text x="885" y="308" text-anchor="middle" class="small">
<tspan x="885" dy="0">value-linking skill</tspan>
</text>
<rect x="80" y="349" width="150" height="42" rx="16" fill="#EEF2F7" stroke="#1F4E79" stroke-width="2"/>
<text x="155" y="370" text-anchor="middle" class="small">
<tspan x="155" dy="0">JOIN</tspan>
</text>
<rect x="270" y="349" width="390" height="42" rx="16" fill="#FFFFFF" stroke="#1F4E79" stroke-width="2"/>
<text x="465" y="370" text-anchor="middle" class="small">
<tspan x="465" dy="0">连接路径、连接方向、冗余 join</tspan>
</text>
<rect x="720" y="349" width="330" height="42" rx="16" fill="#E2EFDA" stroke="#548235" stroke-width="2"/>
<text x="885" y="370" text-anchor="middle" class="small">
<tspan x="885" dy="0">join repair skill</tspan>
</text>
<rect x="80" y="411" width="150" height="42" rx="16" fill="#EEF2F7" stroke="#1F4E79" stroke-width="2"/>
<text x="155" y="432" text-anchor="middle" class="small">
<tspan x="155" dy="0">GROUP / AGG</tspan>
</text>
<rect x="270" y="411" width="390" height="42" rx="16" fill="#FFFFFF" stroke="#1F4E79" stroke-width="2"/>
<text x="465" y="432" text-anchor="middle" class="small">
<tspan x="465" dy="0">聚合口径、别名、HAVING 引用</tspan>
</text>
<rect x="720" y="411" width="330" height="42" rx="16" fill="#E2EFDA" stroke="#548235" stroke-width="2"/>
<text x="885" y="432" text-anchor="middle" class="small">
<tspan x="885" dy="0">aggregation repair skill</tspan>
</text>
<rect x="80" y="473" width="150" height="42" rx="16" fill="#EEF2F7" stroke="#1F4E79" stroke-width="2"/>
<text x="155" y="494" text-anchor="middle" class="small">
<tspan x="155" dy="0">SELECT</tspan>
</text>
<rect x="270" y="473" width="390" height="42" rx="16" fill="#FFFFFF" stroke="#1F4E79" stroke-width="2"/>
<text x="465" y="494" text-anchor="middle" class="small">
<tspan x="465" dy="0">输出列、别名、列顺序</tspan>
</text>
<rect x="720" y="473" width="330" height="42" rx="16" fill="#E2EFDA" stroke="#548235" stroke-width="2"/>
<text x="885" y="494" text-anchor="middle" class="small">
<tspan x="885" dy="0">projection repair skill</tspan>
</text>
<rect x="80" y="535" width="150" height="42" rx="16" fill="#EEF2F7" stroke="#1F4E79" stroke-width="2"/>
<text x="155" y="556" text-anchor="middle" class="small">
<tspan x="155" dy="0">ORDER / LIMIT</tspan>
</text>
<rect x="270" y="535" width="390" height="42" rx="16" fill="#FFFFFF" stroke="#1F4E79" stroke-width="2"/>
<text x="465" y="556" text-anchor="middle" class="small">
<tspan x="465" dy="0">排序字段、方向、top-k</tspan>
</text>
<rect x="720" y="535" width="330" height="42" rx="16" fill="#E2EFDA" stroke="#548235" stroke-width="2"/>
<text x="885" y="556" text-anchor="middle" class="small">
<tspan x="885" dy="0">order repair skill</tspan>
</text>
<text x="60" y="660" text-anchor="start" class="note">解释：SQL+ 的步骤不是展示用标签，而是错误定位、技能路由和局部 patch 的操作单元。</text>
</svg>
