<svg width="1920" height="1080" xmlns="http://www.w3.org/2000/svg" xmlns:xlink="http://www.w3.org/1999/xlink" version="1.1" baseProfile="full" viewBox="0 0 1920 1080">
<rect width="1920" height="1080" x="0" y="0" fill="#ffffff"></rect>
<path d="M150 905.5L1810 905.5" fill="none" pointer-events="visible" stroke="#dbdee4" class="zr1-cls-6"></path>
<path d="M150 765.5L1810 765.5" fill="none" pointer-events="visible" stroke="#dbdee4" class="zr1-cls-6"></path>
<path d="M150 625.5L1810 625.5" fill="none" pointer-events="visible" stroke="#dbdee4" class="zr1-cls-6"></path>
<path d="M150 485.5L1810 485.5" fill="none" pointer-events="visible" stroke="#dbdee4" class="zr1-cls-6"></path>
<path d="M150 345.5L1810 345.5" fill="none" pointer-events="visible" stroke="#dbdee4" class="zr1-cls-6"></path>
<path d="M150 205.5L1810 205.5" fill="none" pointer-events="visible" stroke="#dbdee4" class="zr1-cls-6"></path>
<text dominant-baseline="central" text-anchor="middle" style="font-size:26px;font-family:Microsoft YaHei;" y="-13" transform="translate(150 190)" fill="#17324D">平均次数</text>
<path d="M150 905.5L1810 905.5" fill="none" pointer-events="visible" stroke="#54555a" stroke-linecap="round" class="zr1-cls-6"></path>
<text dominant-baseline="central" text-anchor="end" style="font-size:24px;font-family:Microsoft YaHei;" transform="translate(142 905)" fill="#54555a">0</text>
<text dominant-baseline="central" text-anchor="end" style="font-size:24px;font-family:Microsoft YaHei;" transform="translate(142 765)" fill="#54555a">0.5</text>
<text dominant-baseline="central" text-anchor="end" style="font-size:24px;font-family:Microsoft YaHei;" transform="translate(142 625)" fill="#54555a">1</text>
<text dominant-baseline="central" text-anchor="end" style="font-size:24px;font-family:Microsoft YaHei;" transform="translate(142 485)" fill="#54555a">1.5</text>
<text dominant-baseline="central" text-anchor="end" style="font-size:24px;font-family:Microsoft YaHei;" transform="translate(142 345)" fill="#54555a">2</text>
<text dominant-baseline="central" text-anchor="end" style="font-size:24px;font-family:Microsoft YaHei;" transform="translate(142 205)" fill="#54555a">2.5</text>
<text dominant-baseline="central" text-anchor="end" style="font-size:23px;font-family:Microsoft YaHei;" xml:space="preserve" transform="matrix(0.978,-0.208,0.208,0.978,316,913)" fill="#54555a">Standard SQL</text>
<text dominant-baseline="central" text-anchor="end" style="font-size:23px;font-family:Microsoft YaHei;" transform="matrix(0.978,-0.208,0.208,0.978,648,913)" fill="#54555a">SQL+</text>
<text dominant-baseline="central" text-anchor="end" style="font-size:23px;font-family:Microsoft YaHei;" xml:space="preserve" transform="matrix(0.978,-0.208,0.208,0.978,980,913)" fill="#54555a">SemQL proxy</text>
<text dominant-baseline="central" text-anchor="end" style="font-size:23px;font-family:Microsoft YaHei;" xml:space="preserve" transform="matrix(0.978,-0.208,0.208,0.978,1312,913)" fill="#54555a">NatSQL proxy</text>
<text dominant-baseline="central" text-anchor="end" style="font-size:23px;font-family:Microsoft YaHei;" xml:space="preserve" transform="matrix(0.978,-0.208,0.208,0.978,1644,913)" fill="#54555a">Pipe proxy</text>
<path d="M194.8 905l115.4 0l0 -568.4l-115.4 0Z" fill="#1B4E7A" ecmeta_series_index="0" ecmeta_data_index="0" ecmeta_ssr_type="chart" class="zr1-cls-7 zr1-cls-8"></path>
<path d="M526.8 905l115.4 0l0 -196l-115.4 0Z" fill="#1B4E7A" ecmeta_series_index="0" ecmeta_data_index="1" ecmeta_ssr_type="chart" class="zr1-cls-9 zr1-cls-8"></path>
<path d="M858.8 905l115.4 0l0 -252l-115.4 0Z" fill="#1B4E7A" ecmeta_series_index="0" ecmeta_data_index="2" ecmeta_ssr_type="chart" class="zr1-cls-10 zr1-cls-8"></path>
<path d="M1190.8 905l115.4 0l0 -383.6l-115.4 0Z" fill="#1B4E7A" ecmeta_series_index="0" ecmeta_data_index="3" ecmeta_ssr_type="chart" class="zr1-cls-11 zr1-cls-8"></path>
<path d="M1522.8 905l115.4 0l0 -383.6l-115.4 0Z" fill="#1B4E7A" ecmeta_series_index="0" ecmeta_data_index="4" ecmeta_ssr_type="chart" class="zr1-cls-12 zr1-cls-8"></path>
<path d="M321.8 905l115.4 0l0 -652.4l-115.4 0Z" fill="#C43C35" ecmeta_series_index="1" ecmeta_data_index="0" ecmeta_ssr_type="chart" class="zr1-cls-13 zr1-cls-14"></path>
<path d="M653.8 905l115.4 0l0 -280l-115.4 0Z" fill="#C43C35" ecmeta_series_index="1" ecmeta_data_index="1" ecmeta_ssr_type="chart" class="zr1-cls-15 zr1-cls-14"></path>
<path d="M985.8 905l115.4 0l0 -336l-115.4 0Z" fill="#C43C35" ecmeta_series_index="1" ecmeta_data_index="2" ecmeta_ssr_type="chart" class="zr1-cls-16 zr1-cls-14"></path>
<path d="M1317.8 905l115.4 0l0 -467.6l-115.4 0Z" fill="#C43C35" ecmeta_series_index="1" ecmeta_data_index="3" ecmeta_ssr_type="chart" class="zr1-cls-17 zr1-cls-14"></path>
<path d="M1649.8 905l115.4 0l0 -467.6l-115.4 0Z" fill="#C43C35" ecmeta_series_index="1" ecmeta_data_index="4" ecmeta_ssr_type="chart" class="zr1-cls-18 zr1-cls-14"></path>
<text dominant-baseline="central" text-anchor="middle" style="font-size:24px;font-family:Microsoft YaHei;" y="-12" transform="translate(252.5248 331.6)" fill="#333" stroke="rgb(255,255,255)" stroke-width="2" paint-order="stroke" stroke-miterlimit="2">2.03</text>
<text dominant-baseline="central" text-anchor="middle" style="font-size:24px;font-family:Microsoft YaHei;" y="-12" transform="translate(584.5248 704)" fill="#333" stroke="rgb(255,255,255)" stroke-width="2" paint-order="stroke" stroke-miterlimit="2">0.7</text>
<text dominant-baseline="central" text-anchor="middle" style="font-size:24px;font-family:Microsoft YaHei;" y="-12" transform="translate(916.5248 648)" fill="#333" stroke="rgb(255,255,255)" stroke-width="2" paint-order="stroke" stroke-miterlimit="2">0.9</text>
<text dominant-baseline="central" text-anchor="middle" style="font-size:24px;font-family:Microsoft YaHei;" y="-12" transform="translate(1248.5248 516.4)" fill="#333" stroke="rgb(255,255,255)" stroke-width="2" paint-order="stroke" stroke-miterlimit="2">1.37</text>
<text dominant-baseline="central" text-anchor="middle" style="font-size:24px;font-family:Microsoft YaHei;" y="-12" transform="translate(1580.5248 516.4)" fill="#333" stroke="rgb(255,255,255)" stroke-width="2" paint-order="stroke" stroke-miterlimit="2">1.37</text>
<text dominant-baseline="central" text-anchor="middle" style="font-size:24px;font-family:Microsoft YaHei;" y="-12" transform="translate(379.4752 247.6)" fill="#333" stroke="rgb(255,255,255)" stroke-width="2" paint-order="stroke" stroke-miterlimit="2">2.33</text>
<text dominant-baseline="central" text-anchor="middle" style="font-size:24px;font-family:Microsoft YaHei;" y="-12" transform="translate(711.4752 620)" fill="#333" stroke="rgb(255,255,255)" stroke-width="2" paint-order="stroke" stroke-miterlimit="2">1</text>
<text dominant-baseline="central" text-anchor="middle" style="font-size:24px;font-family:Microsoft YaHei;" y="-12" transform="translate(1043.4752 564)" fill="#333" stroke="rgb(255,255,255)" stroke-width="2" paint-order="stroke" stroke-miterlimit="2">1.2</text>
<text dominant-baseline="central" text-anchor="middle" style="font-size:24px;font-family:Microsoft YaHei;" y="-12" transform="translate(1375.4752 432.4)" fill="#333" stroke="rgb(255,255,255)" stroke-width="2" paint-order="stroke" stroke-miterlimit="2">1.67</text>
<text dominant-baseline="central" text-anchor="middle" style="font-size:24px;font-family:Microsoft YaHei;" y="-12" transform="translate(1707.4752 432.4)" fill="#333" stroke="rgb(255,255,255)" stroke-width="2" paint-order="stroke" stroke-miterlimit="2">1.67</text>
<path d="M-5 -5l321 0l0 35l-321 0Z" transform="translate(804.5 130)" fill="rgb(0,0,0)" fill-opacity="0" stroke="#b7b9be" stroke-width="0" class="zr1-cls-6"></path>
<path d="M4.5 0L29.5 0A4.5 4.5 0 0 1 34 4.5L34 13.5A4.5 4.5 0 0 1 29.5 18L4.5 18A4.5 4.5 0 0 1 0 13.5L0 4.5A4.5 4.5 0 0 1 4.5 0Z" transform="translate(804.5 133.5)" fill="#1B4E7A" ecmeta_series_index="0" ecmeta_data_index="0" ecmeta_ssr_type="legend" ecmeta_silent="true" class="zr1-cls-6"></path>
<text dominant-baseline="central" text-anchor="start" style="font-size:25px;font-family:Microsoft YaHei;" x="39" y="9" transform="translate(804.5 133.5)" fill="#54555a">别名依赖</text>
<path d="M0 -3.5l139 0l0 25l-139 0Z" transform="translate(804.5 133.5)" fill="none" pointer-events="visible" ecmeta_series_index="0" ecmeta_data_index="0" ecmeta_ssr_type="legend" class="zr1-cls-19"></path>
<path d="M4.5 0L29.5 0A4.5 4.5 0 0 1 34 4.5L34 13.5A4.5 4.5 0 0 1 29.5 18L4.5 18A4.5 4.5 0 0 1 0 13.5L0 4.5A4.5 4.5 0 0 1 4.5 0Z" transform="translate(951.5 133.5)" fill="#C43C35" ecmeta_series_index="1" ecmeta_data_index="1" ecmeta_ssr_type="legend" ecmeta_silent="true" class="zr1-cls-6"></path>
<text dominant-baseline="central" text-anchor="start" style="font-size:25px;font-family:Microsoft YaHei;" x="39" y="9" transform="translate(951.5 133.5)" fill="#54555a">跨子句引用</text>
<path d="M0 -3.5l164 0l0 25l-164 0Z" transform="translate(951.5 133.5)" fill="none" pointer-events="visible" ecmeta_series_index="1" ecmeta_data_index="1" ecmeta_ssr_type="legend" class="zr1-cls-19"></path>
<path d="M-302.3 -5l604.6 0l0 92l-604.6 0Z" transform="translate(960 29)" fill="rgb(0,0,0)" fill-opacity="0" stroke="#3c3c41" stroke-width="0" class="zr1-cls-6"></path>
<text dominant-baseline="central" text-anchor="middle" style="font-size:46px;font-family:Microsoft YaHei;font-weight:bold;" y="23" transform="translate(960 29)" fill="#17324D">中间表示复杂度对比</text>
<text dominant-baseline="central" text-anchor="middle" style="font-size:26px;font-family:Microsoft YaHei;" xml:space="preserve" y="69" transform="translate(960 29)" fill="#5B6875">SQL+ 不追求更短，而是降低别名依赖与跨子句引用</text>
<style ><![CDATA[
.zr1-cls-6:hover {
pointer-events:none;
}
.zr1-cls-7 {
animation:zr1-ani-0 1s cubic-bezier(0.65,0,0.35,1) both;
}
.zr1-cls-8:hover {
cursor:pointer;
fill:rgba(29,85,134,1);
}
.zr1-cls-9 {
animation:zr1-ani-1 1s cubic-bezier(0.65,0,0.35,1) both;
}
.zr1-cls-10 {
animation:zr1-ani-2 1s cubic-bezier(0.65,0,0.35,1) both;
}
.zr1-cls-11 {
animation:zr1-ani-3 1s cubic-bezier(0.65,0,0.35,1) both;
}
.zr1-cls-12 {
animation:zr1-ani-4 1s cubic-bezier(0.65,0,0.35,1) both;
}
.zr1-cls-13 {
animation:zr1-ani-5 1s cubic-bezier(0.65,0,0.35,1) both;
}
.zr1-cls-14:hover {
cursor:pointer;
fill:rgba(215,66,58,1);
}
.zr1-cls-15 {
animation:zr1-ani-6 1s cubic-bezier(0.65,0,0.35,1) both;
}
.zr1-cls-16 {
animation:zr1-ani-7 1s cubic-bezier(0.65,0,0.35,1) both;
}
.zr1-cls-17 {
animation:zr1-ani-8 1s cubic-bezier(0.65,0,0.35,1) both;
}
.zr1-cls-18 {
animation:zr1-ani-9 1s cubic-bezier(0.65,0,0.35,1) both;
}
.zr1-cls-19:hover {
cursor:pointer;
fill:rgba(0,0,0,0);
}
@keyframes zr1-ani-0 {
0% {
d:path("M194.8 905l115.4 0l0 0l-115.4 0Z");
}
100% {
d:path("M194.8 905l115.4 0l0 -568.4l-115.4 0Z");
}
}
@keyframes zr1-ani-1 {
0% {
d:path("M526.8 905l115.4 0l0 0l-115.4 0Z");
}
100% {
d:path("M526.8 905l115.4 0l0 -196l-115.4 0Z");
}
}
@keyframes zr1-ani-2 {
0% {
d:path("M858.8 905l115.4 0l0 0l-115.4 0Z");
}
100% {
d:path("M858.8 905l115.4 0l0 -252l-115.4 0Z");
}
}
@keyframes zr1-ani-3 {
0% {
d:path("M1190.8 905l115.4 0l0 0l-115.4 0Z");
}
100% {
d:path("M1190.8 905l115.4 0l0 -383.6l-115.4 0Z");
}
}
@keyframes zr1-ani-4 {
0% {
d:path("M1522.8 905l115.4 0l0 0l-115.4 0Z");
}
100% {
d:path("M1522.8 905l115.4 0l0 -383.6l-115.4 0Z");
}
}
@keyframes zr1-ani-5 {
0% {
d:path("M321.8 905l115.4 0l0 0l-115.4 0Z");
}
100% {
d:path("M321.8 905l115.4 0l0 -652.4l-115.4 0Z");
}
}
@keyframes zr1-ani-6 {
0% {
d:path("M653.8 905l115.4 0l0 0l-115.4 0Z");
}
100% {
d:path("M653.8 905l115.4 0l0 -280l-115.4 0Z");
}
}
@keyframes zr1-ani-7 {
0% {
d:path("M985.8 905l115.4 0l0 0l-115.4 0Z");
}
100% {
d:path("M985.8 905l115.4 0l0 -336l-115.4 0Z");
}
}
@keyframes zr1-ani-8 {
0% {
d:path("M1317.8 905l115.4 0l0 0l-115.4 0Z");
}
100% {
d:path("M1317.8 905l115.4 0l0 -467.6l-115.4 0Z");
}
}
@keyframes zr1-ani-9 {
0% {
d:path("M1649.8 905l115.4 0l0 0l-115.4 0Z");
}
100% {
d:path("M1649.8 905l115.4 0l0 -467.6l-115.4 0Z");
}
}
]]>

</style>
</svg>