<svg width="1920" height="1080" xmlns="http://www.w3.org/2000/svg" xmlns:xlink="http://www.w3.org/1999/xlink" version="1.1" baseProfile="full" viewBox="0 0 1920 1080">
<rect width="1920" height="1080" x="0" y="0" fill="#ffffff"></rect>
<path d="M150 935.5L1810 935.5" fill="none" pointer-events="visible" stroke="#dbdee4" class="zr0-cls-0"></path>
<path d="M150 813.5L1810 813.5" fill="none" pointer-events="visible" stroke="#dbdee4" class="zr0-cls-0"></path>
<path d="M150 691.5L1810 691.5" fill="none" pointer-events="visible" stroke="#dbdee4" class="zr0-cls-0"></path>
<path d="M150 570.5L1810 570.5" fill="none" pointer-events="visible" stroke="#dbdee4" class="zr0-cls-0"></path>
<path d="M150 448.5L1810 448.5" fill="none" pointer-events="visible" stroke="#dbdee4" class="zr0-cls-0"></path>
<path d="M150 326.5L1810 326.5" fill="none" pointer-events="visible" stroke="#dbdee4" class="zr0-cls-0"></path>
<path d="M150 205.5L1810 205.5" fill="none" pointer-events="visible" stroke="#dbdee4" class="zr0-cls-0"></path>
<text dominant-baseline="central" text-anchor="middle" style="font-size:26px;font-family:Microsoft YaHei;" xml:space="preserve" y="-13" transform="translate(150 190)" fill="#17324D">执行一致数 / 30</text>
<path d="M150 935.5L1810 935.5" fill="none" pointer-events="visible" stroke="#54555a" stroke-linecap="round" class="zr0-cls-0"></path>
<text dominant-baseline="central" text-anchor="end" style="font-size:24px;font-family:Microsoft YaHei;" transform="translate(142 935)" fill="#54555a">0</text>
<text dominant-baseline="central" text-anchor="end" style="font-size:24px;font-family:Microsoft YaHei;" transform="translate(142 813.3333)" fill="#54555a">5</text>
<text dominant-baseline="central" text-anchor="end" style="font-size:24px;font-family:Microsoft YaHei;" transform="translate(142 691.6667)" fill="#54555a">10</text>
<text dominant-baseline="central" text-anchor="end" style="font-size:24px;font-family:Microsoft YaHei;" transform="translate(142 570)" fill="#54555a">15</text>
<text dominant-baseline="central" text-anchor="end" style="font-size:24px;font-family:Microsoft YaHei;" transform="translate(142 448.3333)" fill="#54555a">20</text>
<text dominant-baseline="central" text-anchor="end" style="font-size:24px;font-family:Microsoft YaHei;" transform="translate(142 326.6667)" fill="#54555a">25</text>
<text dominant-baseline="central" text-anchor="end" style="font-size:24px;font-family:Microsoft YaHei;" transform="translate(142 205)" fill="#54555a">30</text>
<text dominant-baseline="central" text-anchor="middle" style="font-size:28px;font-family:Microsoft YaHei;" xml:space="preserve" y="14" transform="translate(426.6667 943)" fill="#54555a">Direct SQL</text>
<text dominant-baseline="central" text-anchor="middle" style="font-size:28px;font-family:Microsoft YaHei;" xml:space="preserve" y="14" transform="translate(980 943)" fill="#54555a">NL2SQL+ v1</text>
<text dominant-baseline="central" text-anchor="middle" style="font-size:28px;font-family:Microsoft YaHei;" xml:space="preserve" y="14" transform="translate(1533.3333 943)" fill="#54555a">NL2SQL+ v2</text>
<path d="M378.7 935l96 0l0 -389.3l-96 0Z" fill="#1B4E7A" ecmeta_series_index="0" ecmeta_data_index="0" ecmeta_ssr_type="chart" class="zr0-cls-1 zr0-cls-2"></path>
<path d="M932 935l96 0l0 -316.3l-96 0Z" fill="#1B4E7A" ecmeta_series_index="0" ecmeta_data_index="1" ecmeta_ssr_type="chart" class="zr0-cls-3 zr0-cls-2"></path>
<path d="M1485.3 935l96 0l0 -413.7l-96 0Z" fill="#1B4E7A" ecmeta_series_index="0" ecmeta_data_index="2" ecmeta_ssr_type="chart" class="zr0-cls-4 zr0-cls-2"></path>
<text dominant-baseline="central" text-anchor="middle" style="font-size:28px;font-family:Microsoft YaHei;" y="-14" transform="translate(426.6667 540.6667)" fill="#333" stroke="rgb(255,255,255)" stroke-width="2" paint-order="stroke" stroke-miterlimit="2">16/30</text>
<text dominant-baseline="central" text-anchor="middle" style="font-size:28px;font-family:Microsoft YaHei;" y="-14" transform="translate(980 613.6667)" fill="#333" stroke="rgb(255,255,255)" stroke-width="2" paint-order="stroke" stroke-miterlimit="2">13/30</text>
<text dominant-baseline="central" text-anchor="middle" style="font-size:28px;font-family:Microsoft YaHei;" y="-14" transform="translate(1533.3333 516.3333)" fill="#333" stroke="rgb(255,255,255)" stroke-width="2" paint-order="stroke" stroke-miterlimit="2">17/30</text>
<path d="M-5 -5l149 0l0 35l-149 0Z" transform="translate(890.5 130)" fill="rgb(0,0,0)" fill-opacity="0" stroke="#b7b9be" stroke-width="0" class="zr0-cls-0"></path>
<path d="M4.5 0L29.5 0A4.5 4.5 0 0 1 34 4.5L34 13.5A4.5 4.5 0 0 1 29.5 18L4.5 18A4.5 4.5 0 0 1 0 13.5L0 4.5A4.5 4.5 0 0 1 4.5 0Z" transform="translate(890.5 133.5)" fill="#1B4E7A" ecmeta_series_index="0" ecmeta_data_index="0" ecmeta_ssr_type="legend" ecmeta_silent="true" class="zr0-cls-0"></path>
<text dominant-baseline="central" text-anchor="start" style="font-size:25px;font-family:Microsoft YaHei;" x="39" y="9" transform="translate(890.5 133.5)" fill="#54555a">执行一致</text>
<path d="M0 -3.5l139 0l0 25l-139 0Z" transform="translate(890.5 133.5)" fill="none" pointer-events="visible" ecmeta_series_index="0" ecmeta_data_index="0" ecmeta_ssr_type="legend" class="zr0-cls-5"></path>
<path d="M-416.5 -5l832.9 0l0 92l-832.9 0Z" transform="translate(960 29)" fill="rgb(0,0,0)" fill-opacity="0" stroke="#3c3c41" stroke-width="0" class="zr0-cls-0"></path>
<text dominant-baseline="central" text-anchor="middle" style="font-size:46px;font-family:Microsoft YaHei;font-weight:bold;" xml:space="preserve" y="23" transform="translate(960 29)" fill="#17324D">初次生成对比：Direct SQL 与 NL2SQL+</text>
<text dominant-baseline="central" text-anchor="middle" style="font-size:26px;font-family:Microsoft YaHei;" xml:space="preserve" y="69" transform="translate(960 29)" fill="#5B6875">同一批 30 条自建查询；柱越高表示执行结果与 gold SQL 越一致</text>
<style ><![CDATA[
.zr0-cls-0:hover {
pointer-events:none;
}
.zr0-cls-1 {
animation:zr0-ani-0 1s cubic-bezier(0.65,0,0.35,1) both;
}
.zr0-cls-2:hover {
cursor:pointer;
fill:rgba(29,85,134,1);
}
.zr0-cls-3 {
animation:zr0-ani-1 1s cubic-bezier(0.65,0,0.35,1) both;
}
.zr0-cls-4 {
animation:zr0-ani-2 1s cubic-bezier(0.65,0,0.35,1) both;
}
.zr0-cls-5:hover {
cursor:pointer;
fill:rgba(0,0,0,0);
}
@keyframes zr0-ani-0 {
0% {
d:path("M378.7 935l96 0l0 0l-96 0Z");
}
100% {
d:path("M378.7 935l96 0l0 -389.3l-96 0Z");
}
}
@keyframes zr0-ani-1 {
0% {
d:path("M932 935l96 0l0 0l-96 0Z");
}
100% {
d:path("M932 935l96 0l0 -316.3l-96 0Z");
}
}
@keyframes zr0-ani-2 {
0% {
d:path("M1485.3 935l96 0l0 0l-96 0Z");
}
100% {
d:path("M1485.3 935l96 0l0 -413.7l-96 0Z");
}
}
]]>

</style>
</svg>