<svg width="1920" height="1080" xmlns="http://www.w3.org/2000/svg" xmlns:xlink="http://www.w3.org/1999/xlink" version="1.1" baseProfile="full" viewBox="0 0 1920 1080">
<rect width="1920" height="1080" x="0" y="0" fill="#ffffff"></rect>
<path d="M150 890.5L1840 890.5" fill="none" pointer-events="visible" stroke="#dbdee4" class="zr3-cls-31"></path>
<path d="M150 753.5L1840 753.5" fill="none" pointer-events="visible" stroke="#dbdee4" class="zr3-cls-31"></path>
<path d="M150 616.5L1840 616.5" fill="none" pointer-events="visible" stroke="#dbdee4" class="zr3-cls-31"></path>
<path d="M150 479.5L1840 479.5" fill="none" pointer-events="visible" stroke="#dbdee4" class="zr3-cls-31"></path>
<path d="M150 342.5L1840 342.5" fill="none" pointer-events="visible" stroke="#dbdee4" class="zr3-cls-31"></path>
<path d="M150 205.5L1840 205.5" fill="none" pointer-events="visible" stroke="#dbdee4" class="zr3-cls-31"></path>
<text dominant-baseline="central" text-anchor="middle" style="font-size:26px;font-family:Microsoft YaHei;" y="-13" transform="translate(150 190)" fill="#17324D">修复成功率</text>
<path d="M150 890.5L1840 890.5" fill="none" pointer-events="visible" stroke="#54555a" stroke-linecap="round" class="zr3-cls-31"></path>
<text dominant-baseline="central" text-anchor="end" style="font-size:24px;font-family:Microsoft YaHei;" transform="translate(142 890)" fill="#54555a">0</text>
<text dominant-baseline="central" text-anchor="end" style="font-size:24px;font-family:Microsoft YaHei;" transform="translate(142 753)" fill="#54555a">0.2</text>
<text dominant-baseline="central" text-anchor="end" style="font-size:24px;font-family:Microsoft YaHei;" transform="translate(142 616)" fill="#54555a">0.4</text>
<text dominant-baseline="central" text-anchor="end" style="font-size:24px;font-family:Microsoft YaHei;" transform="translate(142 479)" fill="#54555a">0.6</text>
<text dominant-baseline="central" text-anchor="end" style="font-size:24px;font-family:Microsoft YaHei;" transform="translate(142 342)" fill="#54555a">0.8</text>
<text dominant-baseline="central" text-anchor="end" style="font-size:24px;font-family:Microsoft YaHei;" transform="translate(142 205)" fill="#54555a">1</text>
<text dominant-baseline="central" text-anchor="end" style="font-size:22px;font-family:Microsoft YaHei;" xml:space="preserve" transform="matrix(0.951,-0.309,0.309,0.951,319,898)" fill="#54555a">SQL+ Refiner v2</text>
<text dominant-baseline="central" text-anchor="end" style="font-size:22px;font-family:Microsoft YaHei;" xml:space="preserve" transform="matrix(0.951,-0.309,0.309,0.951,657,898)" fill="#54555a">Direct SQL Refiner</text>
<text dominant-baseline="central" text-anchor="end" style="font-size:22px;font-family:Microsoft YaHei;" transform="matrix(0.951,-0.309,0.309,0.951,995,898)" fill="#54555a">Schema-Critic</text>
<text dominant-baseline="central" text-anchor="end" style="font-size:22px;font-family:Microsoft YaHei;" xml:space="preserve" transform="matrix(0.951,-0.309,0.309,0.951,1333,898)" fill="#54555a">Step-wise Critic</text>
<text dominant-baseline="central" text-anchor="end" style="font-size:22px;font-family:Microsoft YaHei;" xml:space="preserve" transform="matrix(0.951,-0.309,0.309,0.951,1671,898)" fill="#54555a">SQL+ Router Skills</text>
<path d="M283 890l72 0l0 -210.8l-72 0Z" fill="#1B4E7A" ecmeta_series_index="0" ecmeta_data_index="0" ecmeta_ssr_type="chart" class="zr3-cls-32 zr3-cls-33"></path>
<path d="M621 890l72 0l0 -293.6l-72 0Z" fill="#1B4E7A" ecmeta_series_index="0" ecmeta_data_index="1" ecmeta_ssr_type="chart" class="zr3-cls-34 zr3-cls-33"></path>
<path d="M959 890l72 0l0 -158.1l-72 0Z" fill="#1B4E7A" ecmeta_series_index="0" ecmeta_data_index="2" ecmeta_ssr_type="chart" class="zr3-cls-35 zr3-cls-33"></path>
<path d="M1297 890l72 0l0 -158.1l-72 0Z" fill="#1B4E7A" ecmeta_series_index="0" ecmeta_data_index="3" ecmeta_ssr_type="chart" class="zr3-cls-36 zr3-cls-33"></path>
<path d="M1635 890l72 0l0 -685l-72 0Z" fill="#1B4E7A" ecmeta_series_index="0" ecmeta_data_index="4" ecmeta_ssr_type="chart" class="zr3-cls-37 zr3-cls-33"></path>
<text dominant-baseline="central" text-anchor="middle" style="font-size:25px;font-family:Microsoft YaHei;" y="-12.5" transform="translate(319 674.2255)" fill="#333" stroke="rgb(255,255,255)" stroke-width="2" paint-order="stroke" stroke-miterlimit="2">30.8%</text>
<text dominant-baseline="central" text-anchor="middle" style="font-size:25px;font-family:Microsoft YaHei;" y="-12.5" transform="translate(657 591.409)" fill="#333" stroke="rgb(255,255,255)" stroke-width="2" paint-order="stroke" stroke-miterlimit="2">42.9%</text>
<text dominant-baseline="central" text-anchor="middle" style="font-size:25px;font-family:Microsoft YaHei;" y="-12.5" transform="translate(995 726.902)" fill="#333" stroke="rgb(255,255,255)" stroke-width="2" paint-order="stroke" stroke-miterlimit="2">23.1%</text>
<text dominant-baseline="central" text-anchor="middle" style="font-size:25px;font-family:Microsoft YaHei;" y="-12.5" transform="translate(1333 726.902)" fill="#333" stroke="rgb(255,255,255)" stroke-width="2" paint-order="stroke" stroke-miterlimit="2">23.1%</text>
<text dominant-baseline="central" text-anchor="middle" style="font-size:25px;font-family:Microsoft YaHei;" y="-12.5" transform="translate(1671 200)" fill="#333" stroke="rgb(255,255,255)" stroke-width="2" paint-order="stroke" stroke-miterlimit="2">100.0%</text>
<path d="M-5 -5l174 0l0 35l-174 0Z" transform="translate(878 130)" fill="rgb(0,0,0)" fill-opacity="0" stroke="#b7b9be" stroke-width="0" class="zr3-cls-31"></path>
<path d="M4.5 0L29.5 0A4.5 4.5 0 0 1 34 4.5L34 13.5A4.5 4.5 0 0 1 29.5 18L4.5 18A4.5 4.5 0 0 1 0 13.5L0 4.5A4.5 4.5 0 0 1 4.5 0Z" transform="translate(878 133.5)" fill="#1B4E7A" ecmeta_series_index="0" ecmeta_data_index="0" ecmeta_ssr_type="legend" ecmeta_silent="true" class="zr3-cls-31"></path>
<text dominant-baseline="central" text-anchor="start" style="font-size:25px;font-family:Microsoft YaHei;" x="39" y="9" transform="translate(878 133.5)" fill="#54555a">修复成功率</text>
<path d="M0 -3.5l164 0l0 25l-164 0Z" transform="translate(878 133.5)" fill="none" pointer-events="visible" ecmeta_series_index="0" ecmeta_data_index="0" ecmeta_ssr_type="legend" class="zr3-cls-38"></path>
<path d="M-394.6 -5l789.2 0l0 92l-789.2 0Z" transform="translate(960 29)" fill="rgb(0,0,0)" fill-opacity="0" stroke="#3c3c41" stroke-width="0" class="zr3-cls-31"></path>
<text dominant-baseline="central" text-anchor="middle" style="font-size:46px;font-family:Microsoft YaHei;font-weight:bold;" y="23" transform="translate(960 29)" fill="#17324D">反馈修正策略对比</text>
<text dominant-baseline="central" text-anchor="middle" style="font-size:26px;font-family:Microsoft YaHei;" xml:space="preserve" y="69" transform="translate(960 29)" fill="#5B6875">SQL+ Skill Router + Repair Skills 在当前已知失败集上修复成功最高</text>
<style ><![CDATA[
.zr3-cls-31:hover {
pointer-events:none;
}
.zr3-cls-32 {
animation:zr3-ani-0 1s cubic-bezier(0.65,0,0.35,1) both;
}
.zr3-cls-33:hover {
cursor:pointer;
fill:rgba(29,85,134,1);
}
.zr3-cls-34 {
animation:zr3-ani-1 1s cubic-bezier(0.65,0,0.35,1) both;
}
.zr3-cls-35 {
animation:zr3-ani-2 1s cubic-bezier(0.65,0,0.35,1) both;
}
.zr3-cls-36 {
animation:zr3-ani-3 1s cubic-bezier(0.65,0,0.35,1) both;
}
.zr3-cls-37 {
animation:zr3-ani-4 1s cubic-bezier(0.65,0,0.35,1) both;
}
.zr3-cls-38:hover {
cursor:pointer;
fill:rgba(0,0,0,0);
}
@keyframes zr3-ani-0 {
0% {
d:path("M283 890l72 0l0 0l-72 0Z");
}
100% {
d:path("M283 890l72 0l0 -210.8l-72 0Z");
}
}
@keyframes zr3-ani-1 {
0% {
d:path("M621 890l72 0l0 0l-72 0Z");
}
100% {
d:path("M621 890l72 0l0 -293.6l-72 0Z");
}
}
@keyframes zr3-ani-2 {
0% {
d:path("M959 890l72 0l0 0l-72 0Z");
}
100% {
d:path("M959 890l72 0l0 -158.1l-72 0Z");
}
}
@keyframes zr3-ani-3 {
0% {
d:path("M1297 890l72 0l0 0l-72 0Z");
}
100% {
d:path("M1297 890l72 0l0 -158.1l-72 0Z");
}
}
@keyframes zr3-ani-4 {
0% {
d:path("M1635 890l72 0l0 0l-72 0Z");
}
100% {
d:path("M1635 890l72 0l0 -685l-72 0Z");
}
}
]]>

</style>
</svg>