<svg width="1920" height="1080" xmlns="http://www.w3.org/2000/svg" xmlns:xlink="http://www.w3.org/1999/xlink" version="1.1" baseProfile="full" viewBox="0 0 1920 1080">
<rect width="1920" height="1080" x="0" y="0" fill="#ffffff"></rect>
<path d="M150 935.5L1810 935.5" fill="none" pointer-events="visible" stroke="#dbdee4" class="zr2-cls-20"></path>
<path d="M150 813.5L1810 813.5" fill="none" pointer-events="visible" stroke="#dbdee4" class="zr2-cls-20"></path>
<path d="M150 691.5L1810 691.5" fill="none" pointer-events="visible" stroke="#dbdee4" class="zr2-cls-20"></path>
<path d="M150 570.5L1810 570.5" fill="none" pointer-events="visible" stroke="#dbdee4" class="zr2-cls-20"></path>
<path d="M150 448.5L1810 448.5" fill="none" pointer-events="visible" stroke="#dbdee4" class="zr2-cls-20"></path>
<path d="M150 326.5L1810 326.5" fill="none" pointer-events="visible" stroke="#dbdee4" class="zr2-cls-20"></path>
<path d="M150 205.5L1810 205.5" fill="none" pointer-events="visible" stroke="#dbdee4" class="zr2-cls-20"></path>
<path d="M150 935.5L1810 935.5" fill="none" pointer-events="visible" stroke="#dbdee4" class="zr2-cls-20"></path>
<path d="M150 813.5L1810 813.5" fill="none" pointer-events="visible" stroke="#dbdee4" class="zr2-cls-20"></path>
<path d="M150 691.5L1810 691.5" fill="none" pointer-events="visible" stroke="#dbdee4" class="zr2-cls-20"></path>
<path d="M150 570.5L1810 570.5" fill="none" pointer-events="visible" stroke="#dbdee4" class="zr2-cls-20"></path>
<path d="M150 448.5L1810 448.5" fill="none" pointer-events="visible" stroke="#dbdee4" class="zr2-cls-20"></path>
<path d="M150 326.5L1810 326.5" fill="none" pointer-events="visible" stroke="#dbdee4" class="zr2-cls-20"></path>
<path d="M150 205.5L1810 205.5" fill="none" pointer-events="visible" stroke="#dbdee4" class="zr2-cls-20"></path>
<text dominant-baseline="central" text-anchor="middle" style="font-size:25px;font-family:Microsoft YaHei;" xml:space="preserve" y="-12.5" transform="translate(150 190)" fill="#17324D">执行一致数 / 30</text>
<text dominant-baseline="central" text-anchor="middle" style="font-size:25px;font-family:Microsoft YaHei;" xml:space="preserve" y="-12.5" transform="translate(1810 190)" fill="#17324D">平均 token</text>
<path d="M150 935.5L1810 935.5" fill="none" pointer-events="visible" stroke="#54555a" stroke-linecap="round" class="zr2-cls-20"></path>
<text dominant-baseline="central" text-anchor="end" style="font-size:23px;font-family:Microsoft YaHei;" transform="translate(142 935)" fill="#54555a">0</text>
<text dominant-baseline="central" text-anchor="end" style="font-size:23px;font-family:Microsoft YaHei;" transform="translate(142 813.3333)" fill="#54555a">5</text>
<text dominant-baseline="central" text-anchor="end" style="font-size:23px;font-family:Microsoft YaHei;" transform="translate(142 691.6667)" fill="#54555a">10</text>
<text dominant-baseline="central" text-anchor="end" style="font-size:23px;font-family:Microsoft YaHei;" transform="translate(142 570)" fill="#54555a">15</text>
<text dominant-baseline="central" text-anchor="end" style="font-size:23px;font-family:Microsoft YaHei;" transform="translate(142 448.3333)" fill="#54555a">20</text>
<text dominant-baseline="central" text-anchor="end" style="font-size:23px;font-family:Microsoft YaHei;" transform="translate(142 326.6667)" fill="#54555a">25</text>
<text dominant-baseline="central" text-anchor="end" style="font-size:23px;font-family:Microsoft YaHei;" transform="translate(142 205)" fill="#54555a">30</text>
<text dominant-baseline="central" text-anchor="start" style="font-size:23px;font-family:Microsoft YaHei;" transform="translate(1818 935)" fill="#54555a">0</text>
<text dominant-baseline="central" text-anchor="start" style="font-size:23px;font-family:Microsoft YaHei;" transform="translate(1818 813.3333)" fill="#54555a">200</text>
<text dominant-baseline="central" text-anchor="start" style="font-size:23px;font-family:Microsoft YaHei;" transform="translate(1818 691.6667)" fill="#54555a">400</text>
<text dominant-baseline="central" text-anchor="start" style="font-size:23px;font-family:Microsoft YaHei;" transform="translate(1818 570)" fill="#54555a">600</text>
<text dominant-baseline="central" text-anchor="start" style="font-size:23px;font-family:Microsoft YaHei;" transform="translate(1818 448.3333)" fill="#54555a">800</text>
<text dominant-baseline="central" text-anchor="start" style="font-size:23px;font-family:Microsoft YaHei;" transform="translate(1818 326.6667)" fill="#54555a">1,000</text>
<text dominant-baseline="central" text-anchor="start" style="font-size:23px;font-family:Microsoft YaHei;" transform="translate(1818 205)" fill="#54555a">1,200</text>
<text dominant-baseline="central" text-anchor="middle" style="font-size:25px;font-family:Microsoft YaHei;" xml:space="preserve" y="12.5" transform="translate(357.5 943)" fill="#54555a">Direct SQL</text>
<text dominant-baseline="central" text-anchor="middle" style="font-size:25px;font-family:Microsoft YaHei;" y="12.5" transform="translate(772.5 943)" fill="#54555a">SQL+</text>
<text dominant-baseline="central" text-anchor="middle" style="font-size:25px;font-family:Microsoft YaHei;" xml:space="preserve" y="12.5" transform="translate(1187.5 943)" fill="#54555a">NatSQL proxy</text>
<text dominant-baseline="central" text-anchor="middle" style="font-size:25px;font-family:Microsoft YaHei;" xml:space="preserve" y="12.5" transform="translate(1602.5 943)" fill="#54555a">SemQL proxy</text>
<path d="M318.5 935l78 0l0 -292l-78 0Z" fill="#1B4E7A" ecmeta_series_index="0" ecmeta_data_index="0" ecmeta_ssr_type="chart" class="zr2-cls-21 zr2-cls-22"></path>
<path d="M733.5 935l78 0l0 -340.7l-78 0Z" fill="#1B4E7A" ecmeta_series_index="0" ecmeta_data_index="1" ecmeta_ssr_type="chart" class="zr2-cls-23 zr2-cls-22"></path>
<path d="M1148.5 935l78 0l0 -316.3l-78 0Z" fill="#1B4E7A" ecmeta_series_index="0" ecmeta_data_index="2" ecmeta_ssr_type="chart" class="zr2-cls-24 zr2-cls-22"></path>
<path d="M1563.5 935l78 0l0 -292l-78 0Z" fill="#1B4E7A" ecmeta_series_index="0" ecmeta_data_index="3" ecmeta_ssr_type="chart" class="zr2-cls-25 zr2-cls-22"></path>
<text dominant-baseline="central" text-anchor="middle" style="font-size:25px;font-family:Microsoft YaHei;" y="-12.5" transform="translate(357.5 638)" fill="#333" stroke="rgb(255,255,255)" stroke-width="2" paint-order="stroke" stroke-miterlimit="2">12/30</text>
<text dominant-baseline="central" text-anchor="middle" style="font-size:25px;font-family:Microsoft YaHei;" y="-12.5" transform="translate(772.5 589.3333)" fill="#333" stroke="rgb(255,255,255)" stroke-width="2" paint-order="stroke" stroke-miterlimit="2">14/30</text>
<text dominant-baseline="central" text-anchor="middle" style="font-size:25px;font-family:Microsoft YaHei;" y="-12.5" transform="translate(1187.5 613.6667)" fill="#333" stroke="rgb(255,255,255)" stroke-width="2" paint-order="stroke" stroke-miterlimit="2">13/30</text>
<text dominant-baseline="central" text-anchor="middle" style="font-size:25px;font-family:Microsoft YaHei;" y="-12.5" transform="translate(1602.5 638)" fill="#333" stroke="rgb(255,255,255)" stroke-width="2" paint-order="stroke" stroke-miterlimit="2">12/30</text>
<g clip-path="url(#zr2-c0)">
<path d="M357.5 570.5C357.5 570.5 560.7 440.4 772.5 440.4C975.7 440.4 987.9 484.4 1187.5 484.4C1402.9 484.4 1602.5 309 1602.5 309" fill="none" pointer-events="visible" stroke="#C43C35" stroke-width="5" stroke-linejoin="bevel" class="zr2-cls-28"></path>
</g>
<path d="M1 0A1 1 0 1 1 1 -0.1A1 1 0 0 1 1 0" transform="matrix(8,0,0,8,357.5,570.5049)" fill="#fff" stroke="#C43C35" stroke-width="0.25" ecmeta_series_index="1" ecmeta_data_index="0" ecmeta_ssr_type="chart" class="zr2-cls-29"></path>
<path d="M1 0A1 1 0 1 1 1 -0.1A1 1 0 0 1 1 0" transform="matrix(8,0,0,8,772.5,440.4067)" fill="#fff" stroke="#C43C35" stroke-width="0.25" ecmeta_series_index="1" ecmeta_data_index="1" ecmeta_ssr_type="chart" class="zr2-cls-29"></path>
<path d="M1 0A1 1 0 1 1 1 -0.1A1 1 0 0 1 1 0" transform="matrix(8,0,0,8,1187.5,484.3649)" fill="#fff" stroke="#C43C35" stroke-width="0.25" ecmeta_series_index="1" ecmeta_data_index="2" ecmeta_ssr_type="chart" class="zr2-cls-29"></path>
<path d="M1 0A1 1 0 1 1 1 -0.1A1 1 0 0 1 1 0" transform="matrix(8,0,0,8,1602.5,309.0432)" fill="#fff" stroke="#C43C35" stroke-width="0.25" ecmeta_series_index="1" ecmeta_data_index="3" ecmeta_ssr_type="chart" class="zr2-cls-29"></path>
<text dominant-baseline="central" text-anchor="middle" style="font-size:22px;font-family:Microsoft YaHei;" y="-11" transform="translate(357.5 556.5049)" fill="#333" stroke="rgb(255,255,255)" stroke-width="2" paint-order="stroke" stroke-miterlimit="2">599.17</text>
<text dominant-baseline="central" text-anchor="middle" style="font-size:22px;font-family:Microsoft YaHei;" y="-11" transform="translate(772.5 426.4067)" fill="#333" stroke="rgb(255,255,255)" stroke-width="2" paint-order="stroke" stroke-miterlimit="2">813.03</text>
<text dominant-baseline="central" text-anchor="middle" style="font-size:22px;font-family:Microsoft YaHei;" y="-11" transform="translate(1187.5 470.3649)" fill="#333" stroke="rgb(255,255,255)" stroke-width="2" paint-order="stroke" stroke-miterlimit="2">740.77</text>
<text dominant-baseline="central" text-anchor="middle" style="font-size:22px;font-family:Microsoft YaHei;" y="-11" transform="translate(1602.5 295.0432)" fill="#333" stroke="rgb(255,255,255)" stroke-width="2" paint-order="stroke" stroke-miterlimit="2">1028.97</text>
<path d="M-5 -5l315.5 0l0 35l-315.5 0Z" transform="translate(807.25 130)" fill="rgb(0,0,0)" fill-opacity="0" stroke="#b7b9be" stroke-width="0" class="zr2-cls-20"></path>
<path d="M4.5 0L29.5 0A4.5 4.5 0 0 1 34 4.5L34 13.5A4.5 4.5 0 0 1 29.5 18L4.5 18A4.5 4.5 0 0 1 0 13.5L0 4.5A4.5 4.5 0 0 1 4.5 0Z" transform="translate(807.25 133.5)" fill="#1B4E7A" ecmeta_series_index="0" ecmeta_data_index="0" ecmeta_ssr_type="legend" ecmeta_silent="true" class="zr2-cls-20"></path>
<text dominant-baseline="central" text-anchor="start" style="font-size:25px;font-family:Microsoft YaHei;" x="39" y="9" transform="translate(807.25 133.5)" fill="#54555a">执行一致</text>
<path d="M0 -3.5l139 0l0 25l-139 0Z" transform="translate(807.25 133.5)" fill="none" pointer-events="visible" ecmeta_series_index="0" ecmeta_data_index="0" ecmeta_ssr_type="legend" class="zr2-cls-30"></path>
<path d="M0 9L34 9" transform="translate(955.25 133.5)" fill="#000" stroke="#C43C35" stroke-width="2" stroke-linecap="butt" stroke-miterlimit="10" class="zr2-cls-20"></path>
<path d="M24.2 9A7.2 7.2 0 1 1 24.2 8.3A7.2 7.2 0 0 1 24.2 9" transform="translate(955.25 133.5)" fill="#fff" stroke="#C43C35" stroke-width="2" stroke-linecap="butt" stroke-miterlimit="10" class="zr2-cls-20"></path>
<text dominant-baseline="central" text-anchor="start" style="font-size:25px;font-family:Microsoft YaHei;" xml:space="preserve" x="39" y="9" transform="translate(955.25 133.5)" fill="#54555a">平均 token</text>
<path d="M-1 -3.5l158.5 0l0 25l-158.5 0Z" transform="translate(955.25 133.5)" fill="none" pointer-events="visible" ecmeta_series_index="1" ecmeta_data_index="1" ecmeta_ssr_type="legend" class="zr2-cls-30"></path>
<path d="M-327 -5l654 0l0 92l-654 0Z" transform="translate(960 29)" fill="rgb(0,0,0)" fill-opacity="0" stroke="#3c3c41" stroke-width="0" class="zr2-cls-20"></path>
<text dominant-baseline="central" text-anchor="middle" style="font-size:46px;font-family:Microsoft YaHei;font-weight:bold;" y="23" transform="translate(960 29)" fill="#17324D">不同表示的生成成本与执行效果</text>
<text dominant-baseline="central" text-anchor="middle" style="font-size:26px;font-family:Microsoft YaHei;" xml:space="preserve" y="69" transform="translate(960 29)" fill="#5B6875">柱表示执行一致数；折线表示平均 token 成本</text>
<defs >
<clipPath id="zr2-c0">
<path d="M147 202.5l1666 0l0 735l-1666 0Z" fill="#000" class="zr2-cls-26 zr2-cls-27"></path>
</clipPath>
</defs>
<style ><![CDATA[
.zr2-cls-20:hover {
pointer-events:none;
}
.zr2-cls-21 {
animation:zr2-ani-0 1s cubic-bezier(0.65,0,0.35,1) both;
}
.zr2-cls-22:hover {
cursor:pointer;
fill:rgba(29,85,134,1);
}
.zr2-cls-23 {
animation:zr2-ani-1 1s cubic-bezier(0.65,0,0.35,1) both;
}
.zr2-cls-24 {
animation:zr2-ani-2 1s cubic-bezier(0.65,0,0.35,1) both;
}
.zr2-cls-25 {
animation:zr2-ani-3 1s cubic-bezier(0.65,0,0.35,1) both;
}
.zr2-cls-26 {
animation:zr2-ani-4 1s linear both;
}
.zr2-cls-27:hover {
cursor:pointer;
fill:rgba(0,0,0,1);
}
.zr2-cls-28:hover {
cursor:pointer;
}
.zr2-cls-29:hover {
cursor:pointer;
fill:rgba(255,255,255,1);
}
.zr2-cls-30:hover {
cursor:pointer;
fill:rgba(0,0,0,0);
}
@keyframes zr2-ani-0 {
0% {
d:path("M318.5 935l78 0l0 0l-78 0Z");
}
100% {
d:path("M318.5 935l78 0l0 -292l-78 0Z");
}
}
@keyframes zr2-ani-1 {
0% {
d:path("M733.5 935l78 0l0 0l-78 0Z");
}
100% {
d:path("M733.5 935l78 0l0 -340.7l-78 0Z");
}
}
@keyframes zr2-ani-2 {
0% {
d:path("M1148.5 935l78 0l0 0l-78 0Z");
}
100% {
d:path("M1148.5 935l78 0l0 -316.3l-78 0Z");
}
}
@keyframes zr2-ani-3 {
0% {
d:path("M1563.5 935l78 0l0 0l-78 0Z");
}
100% {
d:path("M1563.5 935l78 0l0 -292l-78 0Z");
}
}
@keyframes zr2-ani-4 {
0% {
d:path("M147 202.5l0 0l0 735l0 0Z");
}
100% {
d:path("M147 202.5l1666 0l0 735l-1666 0Z");
}
}
]]>

</style>
</svg>