<svg width="1920" height="1080" xmlns="http://www.w3.org/2000/svg" xmlns:xlink="http://www.w3.org/1999/xlink" version="1.1" baseProfile="full" viewBox="0 0 1920 1080">
<rect width="1920" height="1080" x="0" y="0" fill="#ffffff"></rect>
<path d="M150 895.5L1840 895.5" fill="none" pointer-events="visible" stroke="#dbdee4" class="zr4-cls-39"></path>
<path d="M150 722.5L1840 722.5" fill="none" pointer-events="visible" stroke="#dbdee4" class="zr4-cls-39"></path>
<path d="M150 550.5L1840 550.5" fill="none" pointer-events="visible" stroke="#dbdee4" class="zr4-cls-39"></path>
<path d="M150 377.5L1840 377.5" fill="none" pointer-events="visible" stroke="#dbdee4" class="zr4-cls-39"></path>
<path d="M150 205.5L1840 205.5" fill="none" pointer-events="visible" stroke="#dbdee4" class="zr4-cls-39"></path>
<text dominant-baseline="central" text-anchor="middle" style="font-size:26px;font-family:Microsoft YaHei;" xml:space="preserve" y="-13" transform="translate(150 190)" fill="#17324D">执行一致数 / 20</text>
<path d="M150 895.5L1840 895.5" fill="none" pointer-events="visible" stroke="#54555a" stroke-linecap="round" class="zr4-cls-39"></path>
<text dominant-baseline="central" text-anchor="end" style="font-size:24px;font-family:Microsoft YaHei;" transform="translate(142 895)" fill="#54555a">0</text>
<text dominant-baseline="central" text-anchor="end" style="font-size:24px;font-family:Microsoft YaHei;" transform="translate(142 722.5)" fill="#54555a">5</text>
<text dominant-baseline="central" text-anchor="end" style="font-size:24px;font-family:Microsoft YaHei;" transform="translate(142 550)" fill="#54555a">10</text>
<text dominant-baseline="central" text-anchor="end" style="font-size:24px;font-family:Microsoft YaHei;" transform="translate(142 377.5)" fill="#54555a">15</text>
<text dominant-baseline="central" text-anchor="end" style="font-size:24px;font-family:Microsoft YaHei;" transform="translate(142 205)" fill="#54555a">20</text>
<text dominant-baseline="central" text-anchor="end" style="font-size:24px;font-family:Microsoft YaHei;" xml:space="preserve" transform="matrix(0.978,-0.208,0.208,0.978,361.25,903)" fill="#54555a">conversion smoke</text>
<text dominant-baseline="central" text-anchor="end" style="font-size:24px;font-family:Microsoft YaHei;" xml:space="preserve" transform="matrix(0.978,-0.208,0.208,0.978,783.75,903)" fill="#54555a">e2e v2</text>
<text dominant-baseline="central" text-anchor="end" style="font-size:24px;font-family:Microsoft YaHei;" xml:space="preserve" transform="matrix(0.978,-0.208,0.208,0.978,1206.25,903)" fill="#54555a">fresh e2e</text>
<text dominant-baseline="central" text-anchor="end" style="font-size:24px;font-family:Microsoft YaHei;" xml:space="preserve" transform="matrix(0.978,-0.208,0.208,0.978,1628.75,903)" fill="#54555a">fresh + repair</text>
<path d="M322.3 895l78 0l0 -690l-78 0Z" fill="#1B4E7A" ecmeta_series_index="0" ecmeta_data_index="0" ecmeta_ssr_type="chart" class="zr4-cls-40 zr4-cls-41"></path>
<path d="M744.8 895l78 0l0 -448.5l-78 0Z" fill="#1B4E7A" ecmeta_series_index="0" ecmeta_data_index="1" ecmeta_ssr_type="chart" class="zr4-cls-42 zr4-cls-41"></path>
<path d="M1167.3 895l78 0l0 -655.5l-78 0Z" fill="#1B4E7A" ecmeta_series_index="0" ecmeta_data_index="2" ecmeta_ssr_type="chart" class="zr4-cls-43 zr4-cls-41"></path>
<path d="M1589.8 895l78 0l0 -690l-78 0Z" fill="#1B4E7A" ecmeta_series_index="0" ecmeta_data_index="3" ecmeta_ssr_type="chart" class="zr4-cls-44 zr4-cls-41"></path>
<text dominant-baseline="central" text-anchor="middle" style="font-size:28px;font-family:Microsoft YaHei;" y="-14" transform="translate(361.25 200)" fill="#333" stroke="rgb(255,255,255)" stroke-width="2" paint-order="stroke" stroke-miterlimit="2">20/20</text>
<text dominant-baseline="central" text-anchor="middle" style="font-size:28px;font-family:Microsoft YaHei;" y="-14" transform="translate(783.75 441.5)" fill="#333" stroke="rgb(255,255,255)" stroke-width="2" paint-order="stroke" stroke-miterlimit="2">13/20</text>
<text dominant-baseline="central" text-anchor="middle" style="font-size:28px;font-family:Microsoft YaHei;" y="-14" transform="translate(1206.25 234.5)" fill="#333" stroke="rgb(255,255,255)" stroke-width="2" paint-order="stroke" stroke-miterlimit="2">19/20</text>
<text dominant-baseline="central" text-anchor="middle" style="font-size:28px;font-family:Microsoft YaHei;" y="-14" transform="translate(1628.75 200)" fill="#333" stroke="rgb(255,255,255)" stroke-width="2" paint-order="stroke" stroke-miterlimit="2">20/20</text>
<path d="M-5 -5l149 0l0 35l-149 0Z" transform="translate(890.5 130)" fill="rgb(0,0,0)" fill-opacity="0" stroke="#b7b9be" stroke-width="0" class="zr4-cls-39"></path>
<path d="M4.5 0L29.5 0A4.5 4.5 0 0 1 34 4.5L34 13.5A4.5 4.5 0 0 1 29.5 18L4.5 18A4.5 4.5 0 0 1 0 13.5L0 4.5A4.5 4.5 0 0 1 4.5 0Z" transform="translate(890.5 133.5)" fill="#1B4E7A" ecmeta_series_index="0" ecmeta_data_index="0" ecmeta_ssr_type="legend" ecmeta_silent="true" class="zr4-cls-39"></path>
<text dominant-baseline="central" text-anchor="start" style="font-size:25px;font-family:Microsoft YaHei;" x="39" y="9" transform="translate(890.5 133.5)" fill="#54555a">执行一致</text>
<path d="M0 -3.5l139 0l0 25l-139 0Z" transform="translate(890.5 133.5)" fill="none" pointer-events="visible" ecmeta_series_index="0" ecmeta_data_index="0" ecmeta_ssr_type="legend" class="zr4-cls-45"></path>
<path d="M-419.4 -5l838.9 0l0 92l-838.9 0Z" transform="translate(960 29)" fill="rgb(0,0,0)" fill-opacity="0" stroke="#3c3c41" stroke-width="0" class="zr4-cls-39"></path>
<text dominant-baseline="central" text-anchor="middle" style="font-size:46px;font-family:Microsoft YaHei;font-weight:bold;" xml:space="preserve" y="23" transform="translate(960 29)" fill="#17324D">Spider 小规模子集验证</text>
<text dominant-baseline="central" text-anchor="middle" style="font-size:26px;font-family:Microsoft YaHei;" xml:space="preserve" y="69" transform="translate(960 29)" fill="#5B6875">conversion smoke test 使用 gold SQL 转 SQL+，不代表端到端生成成绩</text>
<style ><![CDATA[
.zr4-cls-39:hover {
pointer-events:none;
}
.zr4-cls-40 {
animation:zr4-ani-0 1s cubic-bezier(0.65,0,0.35,1) both;
}
.zr4-cls-41:hover {
cursor:pointer;
fill:rgba(29,85,134,1);
}
.zr4-cls-42 {
animation:zr4-ani-1 1s cubic-bezier(0.65,0,0.35,1) both;
}
.zr4-cls-43 {
animation:zr4-ani-2 1s cubic-bezier(0.65,0,0.35,1) both;
}
.zr4-cls-44 {
animation:zr4-ani-3 1s cubic-bezier(0.65,0,0.35,1) both;
}
.zr4-cls-45:hover {
cursor:pointer;
fill:rgba(0,0,0,0);
}
@keyframes zr4-ani-0 {
0% {
d:path("M322.3 895l78 0l0 0l-78 0Z");
}
100% {
d:path("M322.3 895l78 0l0 -690l-78 0Z");
}
}
@keyframes zr4-ani-1 {
0% {
d:path("M744.8 895l78 0l0 0l-78 0Z");
}
100% {
d:path("M744.8 895l78 0l0 -448.5l-78 0Z");
}
}
@keyframes zr4-ani-2 {
0% {
d:path("M1167.3 895l78 0l0 0l-78 0Z");
}
100% {
d:path("M1167.3 895l78 0l0 -655.5l-78 0Z");
}
}
@keyframes zr4-ani-3 {
0% {
d:path("M1589.8 895l78 0l0 0l-78 0Z");
}
100% {
d:path("M1589.8 895l78 0l0 -690l-78 0Z");
}
}
]]>

</style>
</svg>